HIERARCHY
ROOT Character1_Hips
{
  OFFSET -24.455 95.4941 -14.2154
  CHANNELS 6 Xposition Yposition Zposition Zrotation Xrotation Yrotation
  JOINT Character1_Spine
  {
    OFFSET 0 8.754 -1.339
    CHANNELS 3 Zrotation Xrotation Yrotation
    JOINT Character1_Spine1
    {
      OFFSET 0 10.855 -0.645
      CHANNELS 3 Zrotation Xrotation Yrotation
      JOINT Character1_LeftShoulder
      {
        OFFSET 1.467 27.745 1.178
        CHANNELS 3 Zrotation Xrotation Yrotation
        JOINT Character1_LeftArm
        {
          OFFSET 18.486 -1.858 0.275
          CHANNELS 3 Zrotation Xrotation Yrotation
          JOINT Character1_LeftForeArm
          {
            OFFSET 32.391 -1.079 3.409
            CHANNELS 3 Zrotation Xrotation Yrotation
            JOINT Character1_LeftHand
            {
              OFFSET 28.678 -2.281 2.112
              CHANNELS 3 Zrotation Xrotation Yrotation
              End Site
              {
                OFFSET -0.000241878 -0.00028536 -9.11487e-005
              }
            }
            JOINT L_Radius
            {
              OFFSET -8.94447e-005 -0.392541 -0.0893675
              CHANNELS 3 Zrotation Xrotation Yrotation
              End Site
              {
                OFFSET 0 0 0
              }
            }
          }
          JOINT L_Humerus
          {
            OFFSET 42.9881 15.7281 -23.1008
            CHANNELS 3 Zrotation Xrotation Yrotation
            End Site
            {
              OFFSET 0 0 0
            }
          }
        }
        JOINT L_Shoulder
        {
          OFFSET 3.24498e-005 -0.000608592 -0.000527677
          CHANNELS 3 Zrotation Xrotation Yrotation
          End Site
          {
            OFFSET 0 0 0
          }
        }
      }
      JOINT Character1_RightShoulder
      {
        OFFSET -1.467 27.745 1.178
        CHANNELS 3 Zrotation Xrotation Yrotation
        JOINT Character1_RightArm
        {
          OFFSET -18.486 -1.858 0.275
          CHANNELS 3 Zrotation Xrotation Yrotation
          JOINT Character1_RightForeArm
          {
            OFFSET -32.391 -1.079 3.409
            CHANNELS 3 Zrotation Xrotation Yrotation
            JOINT Character1_RightHand
            {
              OFFSET -28.678 -2.281 2.112
              CHANNELS 3 Zrotation Xrotation Yrotation
              End Site
              {
                OFFSET 0.000589556 -0.000254961 0.000258925
              }
            }
            JOINT R_Radius
            {
              OFFSET 0.000437123 -0.392512 -0.0890171
              CHANNELS 3 Zrotation Xrotation Yrotation
              End Site
              {
                OFFSET 0 0 0
              }
            }
          }
          JOINT R_Humerus
          {
            OFFSET -42.9874 15.7281 -23.1005
            CHANNELS 3 Zrotation Xrotation Yrotation
            End Site
            {
              OFFSET 0 0 0
            }
          }
        }
        JOINT R_Shoulder
        {
          OFFSET -3.24498e-005 -0.000608592 -0.000527677
          CHANNELS 3 Zrotation Xrotation Yrotation
          End Site
          {
            OFFSET 0 0 0
          }
        }
      }
      JOINT Character1_Neck
      {
        OFFSET 0 30.836 0.626
        CHANNELS 3 Zrotation Xrotation Yrotation
        JOINT Character1_Head
        {
          OFFSET 0 8.074 3.498
          CHANNELS 3 Zrotation Xrotation Yrotation
          End Site
          {
            OFFSET 0 -0.00153379 1.54668e-005
          }
        }
        JOINT Neck
        {
          OFFSET 0.294592 -0.0165676 0.920615
          CHANNELS 3 Zrotation Xrotation Yrotation
          End Site
          {
            OFFSET 0 0 0
          }
        }
      }
      JOINT Torso
      {
        OFFSET 0 -0.000828813 -0.000380861
        CHANNELS 3 Zrotation Xrotation Yrotation
        End Site
        {
          OFFSET 0 0 0
        }
      }
    }
    JOINT Spine
    {
      OFFSET 0.027384 -0.0285983 -0.124144
      CHANNELS 3 Zrotation Xrotation Yrotation
      End Site
      {
        OFFSET 0 0 0
      }
    }
  }
  JOINT Character1_RightUpLeg
  {
    OFFSET -9.035 -4.63425 1.845
    CHANNELS 3 Zrotation Xrotation Yrotation
    JOINT Character1_RightLeg
    {
      OFFSET -0.919521 -40.345 1.155
      CHANNELS 3 Zrotation Xrotation Yrotation
      JOINT Character1_RightFoot
      {
        OFFSET 1.95452 -45.2655 -4.18888
        CHANNELS 3 Zrotation Xrotation Yrotation
        JOINT Character1_RightToeBase
        {
          OFFSET 1.87056 -6.69517 14.7145
          CHANNELS 3 Zrotation Xrotation Yrotation
          End Site
          {
            OFFSET 0 0 0
          }
        }
        JOINT R_Foot
        {
          OFFSET 8 -7.75529 4.18888
          CHANNELS 3 Zrotation Xrotation Yrotation
          End Site
          {
            OFFSET 0 0 0
          }
        }
      }
      JOINT R_Tibia
      {
        OFFSET 0 0 0
        CHANNELS 3 Zrotation Xrotation Yrotation
        End Site
        {
          OFFSET 0 0 0
        }
      }
    }
    JOINT R_Femur
    {
      OFFSET 0 0 0
      CHANNELS 3 Zrotation Xrotation Yrotation
      End Site
      {
        OFFSET 0 0 0
      }
    }
  }
  JOINT Character1_LeftUpLeg
  {
    OFFSET 9.035 -4.63425 1.845
    CHANNELS 3 Zrotation Xrotation Yrotation
    JOINT Character1_LeftLeg
    {
      OFFSET 0.919521 -40.345 1.155
      CHANNELS 3 Zrotation Xrotation Yrotation
      JOINT Character1_LeftFoot
      {
        OFFSET -1.95452 -45.2655 -4.18888
        CHANNELS 3 Zrotation Xrotation Yrotation
        JOINT Character1_LeftToeBase
        {
          OFFSET -1.87056 -6.69517 14.7145
          CHANNELS 3 Zrotation Xrotation Yrotation
          End Site
          {
            OFFSET 0 0 0
          }
        }
        JOINT L_Foot
        {
          OFFSET -8 -7.75529 4.18888
          CHANNELS 3 Zrotation Xrotation Yrotation
          End Site
          {
            OFFSET 0 0 0
          }
        }
      }
      JOINT L_Tibia
      {
        OFFSET 0 0 0
        CHANNELS 3 Zrotation Xrotation Yrotation
        End Site
        {
          OFFSET 0 0 0
        }
      }
    }
    JOINT L_Femur
    {
      OFFSET 0 0 0
      CHANNELS 3 Zrotation Xrotation Yrotation
      End Site
      {
        OFFSET 0 0 0
      }
    }
  }
  JOINT Pelvis
  {
    OFFSET 0 0 0
    CHANNELS 3 Zrotation Xrotation Yrotation
    End Site
    {
      OFFSET 0 0 0
    }
  }
}
MOTION
Frames:	8
Frame Time:	0.00833333
-19.7649 88.5406 5.24544 2.59186 0.662261 167.697 4.96962e-016 1.98785e-016 -3.18055e-015 9.60052 11.4817 -2.96239 -10.0203 3.79259 -13.0882 -57.5764 19.0978 -13.6866 -0.00194159 0.00193614 -1.80257 0.382421 12.0657 -1.64829 2.16909e-015 20 -1.69234e-015 83 1.19271e-015 -85 0 0 -3.18055e-015 5.24082 5.86531 15.1129 52.6727 -4.83637 -9.97422 -0.00612434 5.76662e-006 43.466 5.42967 25.9109 -22.6052 -2.61343e-015 20 6.76935e-015 -83 3.18055e-015 85 -1.2424e-016 3.18055e-015 -3.97569e-016 7.95139e-016 -1.59028e-015 -1.59028e-015 -7.53245 -4.63043 15.3439 -5.64984 -14.3375 3.14037 7.95139e-016 -1.59028e-015 -1.59028e-015 3.11702 3.87975 -0.767216 -7.6301 -23.1795 -9.70259 0.036151 45.905 0.640916 6.02695 -20.2343 7.05268 0.00723236 -0.424404 0.000530199 8.41886e-038 -1.51661e-021 3.18055e-015 -1.59028e-015 3.18055e-015 -3.18055e-015 -0 0 3.18055e-015 16.222 -23.2437 13.4769 -0.022575 47.3071 -0.40663 -8.32939 -20.3343 8.92389 7.105e-005 -0.000458986 -0.0011764 7.93849e-022 -9.47879e-023 -0 8.31634e-016 6.36111e-015 -3.26908e-016 -2.48481e-017 3.18055e-015 2.48481e-016 4.96962e-016 1.98785e-016 -3.18055e-015 
-19.6749 88.7846 5.23993 2.70896 0.6668 167.706 -1.98785e-016 0 -3.18055e-015 9.71149 11.1484 -3.21818 -10.0271 3.59276 -13.1462 -58.1492 19.7459 -13.5706 -0.00194159 0.00193614 -1.80261 -0.49231 11.0121 0.155943 1.43243e-016 20 4.23084e-015 83 0 -85 -0 -1.59028e-015 -0 5.4199 5.66323 14.9732 53.3261 -6.77587 -10.0008 -0.00612407 6.00759e-006 40.8775 5.80572 25.6137 -23.9906 -6.12724e-015 20 3.38468e-015 -83 0 85 2.88238e-015 0 1.98785e-016 -0 0 4.77083e-015 -7.58098 -3.96366 15.691 -5.74038 -13.9666 3.25402 -0 0 4.77083e-015 3.19216 3.84662 -0.890665 -7.37563 -22.7207 -9.72483 0.0376178 45.1319 0.624767 5.93376 -19.904 7.0824 0.0064861 -0.318239 0.000530193 -3.79152e-022 -1.51661e-021 3.18055e-015 1.59028e-015 -3.18055e-015 3.18055e-015 1.59028e-015 3.18055e-015 -0 16.3288 -22.8269 13.5442 -0.0235585 46.607 -0.397989 -8.36257 -19.9984 8.72746 -0.00482545 -0.175498 -0.00117641 2.27491e-021 3.03321e-021 3.18055e-015 -1.42876e-015 3.18055e-015 -4.72114e-016 -1.2424e-015 3.18055e-015 7.95139e-016 -1.98785e-016 0 -3.18055e-015 
-19.5848 89.0286 5.2344 2.82608 0.671384 167.714 -3.72721e-016 -9.93923e-017 -3.18055e-015 9.82188 10.8144 -3.47276 -10.0341 3.39321 -13.2042 -58.7246 20.3945 -13.4555 -0.00194159 0.00193614 -1.80262 -1.3042 9.93424 1.94259 8.6822e-016 20 -2.53851e-015 83 -1.59028e-015 -85 -7.95139e-016 -1.59028e-015 -0 5.59817 5.46106 14.8336 53.9775 -8.71491 -10.0407 -0.0061238 6.23626e-006 38.2893 6.17696 25.3017 -25.3684 -3.57812e-015 20 -0 -83 3.18055e-015 85 -2.08724e-015 -1.59028e-015 -7.95139e-016 -1.98785e-015 -1.59028e-015 3.18055e-015 -7.63098 -3.29592 16.0373 -5.82124 -13.447 3.3698 -1.98785e-015 -1.59028e-015 3.18055e-015 3.2386 3.74977 -0.999467 -7.11981 -22.2566 -9.74658 0.0388041 44.3478 0.608335 5.84148 -19.5682 7.11292 0.00588367 -0.212081 0.000530189 -0 -3.03321e-021 -0 -7.95139e-016 0 -3.18055e-015 -3.18055e-015 0 9.54166e-015 16.4341 -22.4051 13.611 -0.0246404 45.897 -0.389073 -8.39645 -19.6578 8.53173 -0.00971428 -0.35098 -0.00117642 -9.24182e-022 6.63515e-022 -1.59028e-015 -1.50331e-015 0 -7.95139e-016 -4.96962e-016 0 7.95139e-016 -3.72721e-016 -9.93923e-017 -3.18055e-015 
-19.4947 89.2727 5.22884 2.94317 0.676014 167.723 3.23025e-016 2.98177e-016 -0 9.93189 10.48 -3.72624 -10.0417 3.19361 -13.2624 -59.303 21.0439 -13.341 -0.00194159 0.00193614 -1.80262 -2.05324 8.83487 3.71344 3.18055e-015 20 -0 83 -3.97569e-015 -85 7.95139e-016 0 -3.18055e-015 5.7754 5.25846 14.6944 54.6257 -10.6534 -10.0938 -0.00612351 6.45222e-006 35.7011 6.54304 24.975 -26.7385 0 20 -0 -83 6.36111e-015 85 -5.76476e-015 0 -0 3.97569e-016 -7.95139e-016 3.18055e-015 -7.68245 -2.62813 16.3828 -5.89144 -12.8788 3.47357 3.97569e-016 -7.95139e-016 3.18055e-015 3.25856 3.61208 -1.08079 -6.8628 -21.7861 -9.76793 0.039969 43.5515 0.591699 5.75013 -19.2268 7.14427 0.00533669 -0.105918 0.000530186 4.7394e-022 -3.79152e-022 -0 7.06225e-031 6.36111e-015 -6.36111e-015 1.59028e-015 0 -3.18055e-015 16.5377 -21.9785 13.6773 -0.0254488 45.1775 -0.380077 -8.43112 -19.3124 8.33674 -0.0146152 -0.526468 -0.00117645 5.68727e-022 1.51661e-021 3.18055e-015 7.45443e-016 0 4.96962e-017 -7.45443e-016 0 -0 3.23025e-016 2.98177e-016 -0 
-19.4045 89.5169 5.22326 3.06026 0.680644 167.732 1.49089e-016 2.98177e-016 3.18055e-015 10.0415 10.145 -3.97863 -10.0498 2.99406 -13.3207 -59.8838 21.6939 -13.2273 -0.00194159 0.00193614 -1.80258 -2.73931 7.71694 5.47019 3.75937e-015 20 -1.69234e-015 83 -3.97569e-016 -85 -0 0 3.18055e-015 5.95162 5.05555 14.5554 55.2697 -12.5913 -10.1602 -0.00612322 6.65503e-006 33.1127 6.90355 24.6337 -28.1005 2.56666e-015 20 -1.69234e-015 -83 3.18055e-015 85 -1.39149e-015 3.18055e-015 -3.97569e-016 4.41391e-032 7.95139e-016 -3.18055e-015 -7.73541 -1.9602 16.7275 -5.94867 -12.3618 3.55131 4.41391e-032 7.95139e-016 -3.18055e-015 3.25459 3.45644 -1.12183 -6.60426 -21.3096 -9.78877 0.0406511 42.7429 0.574862 5.65975 -18.8793 7.17642 0.00467069 -0.0002537 0.000530185 -1.04267e-021 -5.68727e-022 -6.36111e-015 7.95139e-016 0 -3.18055e-015 -0 -3.18055e-015 -0 16.6395 -21.5467 13.743 -0.0260798 44.4476 -0.37088 -8.46655 -18.9621 8.14254 -0.0195162 -0.701958 -0.00117649 7.58303e-022 -1.51661e-021 3.18055e-015 -4.72114e-016 -3.18055e-015 -1.98785e-016 1.44119e-015 0 -2.98177e-016 1.49089e-016 2.98177e-016 3.18055e-015 
-19.3271 89.9454 5.14501 2.91841 0.562197 167.656 7.70291e-016 9.93923e-017 -1.59028e-015 9.81717 9.53772 -3.76161 -10.181 3.02333 -13.0411 -60.0299 22.7969 -12.9476 -0.00189428 0.00193408 -3.20319 -3.95553 8.07062 5.07073 -1.87968e-015 20 8.46169e-016 83 1.19271e-015 -85 0 1.59028e-015 -0 6.02431 5.02379 14.1805 55.8472 -12.6141 -10.5741 -0.00612305 6.76035e-006 31.6954 6.79599 21.0358 -27.4937 -1.98785e-016 20 -0 -83 0 85 5.06901e-015 1.59028e-015 3.97569e-016 1.98785e-015 7.95139e-016 -0 -7.69666 -1.50477 16.7934 -5.99 -11.9016 3.59781 1.98785e-015 7.95139e-016 -0 3.21975 3.27538 -1.10672 -6.32758 -20.7617 -9.18036 0.0452972 41.4367 0.552298 5.60858 -18.3683 6.744 0.0039611 -0.000217821 0.000530185 -1.89576e-022 0 -3.18055e-015 1.59028e-015 -3.18055e-015 3.18055e-015 -7.95139e-016 -9.54166e-015 -3.18055e-015 16.3751 -20.8872 13.8597 -0.0301853 43.0629 -0.349956 -8.42313 -18.3718 8.0075 -0.0256813 -0.923134 -0.00117656 5.80576e-022 0 1.59028e-015 1.98785e-016 0 -2.98177e-016 -4.47266e-016 6.36111e-015 -1.09332e-015 7.70291e-016 9.93923e-017 -1.59028e-015 
-19.249 90.3742 5.06709 2.77624 0.444115 167.58 -6.70898e-016 0 1.59028e-015 9.59747 8.92938 -3.54673 -10.3124 3.05247 -12.7615 -60.1872 23.9015 -12.6679 -0.00184088 0.00193035 -4.78655 -5.17324 8.40905 4.67673 1.87968e-015 20 -8.46169e-016 83 7.95139e-016 -85 -8.82781e-032 -1.59028e-015 -3.18055e-015 6.09625 4.99152 13.8056 56.4245 -12.636 -10.9881 -0.00612288 6.86153e-006 30.2782 6.7005 17.4372 -26.9587 6.75868e-015 20 -0 -83 -6.36111e-015 85 -4.02539e-015 -1.59028e-015 7.95139e-016 2.18663e-015 7.95139e-016 -0 -7.65812 -1.04943 16.8584 -6.01632 -11.4517 3.62127 2.18663e-015 7.95139e-016 -0 3.15584 3.06122 -1.04648 -6.04671 -20.1997 -8.57119 0.0492873 40.1021 0.526707 5.54176 -17.8411 6.30896 0.00328137 -0.000169171 0.000530185 4.8912e-022 8.14584e-023 -3.18055e-015 3.53113e-031 6.36111e-015 -3.18055e-015 -7.95139e-016 3.18055e-015 3.18055e-015 16.1051 -20.2076 13.9744 -0.0341546 41.6384 -0.328286 -8.38401 -17.7625 7.87282 -0.0318469 -1.14431 -0.00117664 -1.75876e-023 0 -0 1.63997e-015 -6.36111e-015 1.98785e-016 -8.94531e-016 0 -3.97569e-016 -6.70898e-016 0 1.59028e-015 
-19.17 90.8031 4.98948 2.63376 0.326415 167.504 -1.49089e-016 0 -0 9.38214 8.31979 -3.33388 -10.4438 3.08162 -12.4819 -60.3561 25.0076 -12.3879 -0.00178761 0.00192514 -6.3699 -6.3913 8.74655 4.28769 1.15763e-015 20 -3.38468e-015 83 0 -85 7.95139e-016 0 3.18055e-015 6.16758 4.95889 13.4307 57.0014 -12.6571 -11.4021 -0.00612271 6.95851e-006 28.8611 6.60758 13.8395 -26.4898 1.73644e-015 20 -5.07701e-015 -83 -3.18055e-015 85 2.98177e-016 -1.59028e-015 -3.97569e-016 1.98785e-015 -1.59028e-015 -0 -7.61965 -0.593909 16.9225 -6.03033 -11.0347 3.62773 1.98785e-015 -1.59028e-015 -0 3.07851 2.83649 -0.968642 -5.76186 -19.6216 -7.96146 0.0522996 38.7359 0.498414 5.4594 -17.296 5.87154 0.00270595 -0.000142335 0.000530185 -9.47879e-023 0 -6.36111e-015 7.95139e-016 -3.18055e-015 -3.18055e-015 -2.38542e-015 3.18055e-015 -9.54166e-015 15.8286 -19.5066 14.087 -0.0371527 40.1707 -0.30603 -8.34935 -17.1323 7.73876 -0.0380136 -1.3655 -0.00117674 7.58303e-022 -7.58303e-022 -4.77083e-015 5.2181e-016 -6.36111e-015 -3.97569e-016 1.19271e-015 3.18055e-015 -0 -1.49089e-016 0 -0 
